<svg width="377" height="352" viewBox="0 0 377 352" fill="none" xmlns="http://www.w3.org/2000/svg">
<path d="M118.589 352C76.5448 352.046 35.3768 338.197 0 312.107C6.12798 312.924 12.2923 313.328 18.4614 313.318C53.2946 313.382 87.1351 299.996 114.544 275.312C98.3985 274.958 82.7528 268.82 69.7941 257.755C56.8353 246.691 47.2113 231.253 42.2675 213.601C47.0583 214.665 51.9266 215.202 56.8062 215.205C63.6962 215.207 70.5557 214.156 77.2045 212.08C59.6923 208.019 43.9429 197.126 32.6281 181.249C21.3133 165.373 15.13 145.491 15.1271 124.976C15.1271 124.581 15.1271 124.215 15.1271 123.849C25.8653 130.713 37.8783 134.526 50.1621 134.97C33.7817 122.405 22.1898 103.141 17.7484 81.1034C13.3069 59.0658 16.3501 35.9127 26.2579 16.3619C45.6665 43.8083 69.8835 66.2625 97.3376 82.2676C124.792 98.2727 154.869 107.471 185.619 109.266C181.704 90.1914 183.39 70.1656 190.413 52.3045C197.436 34.4433 209.403 19.7483 224.452 10.5057C239.501 1.26303 256.789 -2.00893 273.625 1.19882C290.461 4.40658 305.903 13.9142 317.546 28.2424C334.836 24.2954 351.417 17.0032 366.58 6.67736C360.803 27.2506 348.72 44.7169 332.575 55.8322C347.911 53.7038 362.884 48.9594 377 41.7558C366.609 59.6004 353.533 75.1775 338.386 87.7575C338.557 91.5581 338.631 95.3869 338.631 99.2438C338.631 216.613 260.789 352 118.491 352" fill="#1DA1F2"/>
</svg>
